REM DIRINDEX 1\6,1\2\7,1\2\8,1\2\9,1\3\10,1\3\11,1\4\12,1\4\13,1\4\14,1\5\15,1\5\16,1\5\17
REM DIRNAME cjc040,folder01,folder02,folder03,folder04,folder05,folder06,folder07,folder08,folder09,folder10,folder11,folder12,folder13,folder14,folder15,folder16
TITLE ""
FILE "P2Q_t2_0583-0600.mp3" MP3
  TRACK 01 AUDIO
    TITLE "7:cjc040_5579"
    INDEX 01 00:00:00
  TRACK 02 AUDIO
    TITLE "0:"
    INDEX 01 00:01:09
  TRACK 03 AUDIO
    TITLE "8:cjc040_5580"
    INDEX 01 00:01:66
  TRACK 04 AUDIO
    TITLE "0:"
    INDEX 01 00:04:27
  TRACK 05 AUDIO
    TITLE "9:cjc040_5581"
    INDEX 01 00:05:09
  TRACK 06 AUDIO
    TITLE "0:"
    INDEX 01 00:06:31
  TRACK 07 AUDIO
    TITLE "7:cjc040_5582"
    INDEX 01 00:08:07
  TRACK 08 AUDIO
    TITLE "0:"
    INDEX 01 00:09:06
  TRACK 09 AUDIO
    TITLE "8:cjc040_5583"
    INDEX 01 00:09:61
  TRACK 10 AUDIO
    TITLE "0:"
    INDEX 01 00:12:24
  TRACK 11 AUDIO
    TITLE "9:cjc040_5584"
    INDEX 01 00:13:02
  TRACK 12 AUDIO
    TITLE "0:"
    INDEX 01 00:14:06
  TRACK 13 AUDIO
    TITLE "7:cjc040_5585"
    INDEX 01 00:15:58
  TRACK 14 AUDIO
    TITLE "0:"
    INDEX 01 00:17:00
  TRACK 15 AUDIO
    TITLE "8:cjc040_5586"
    INDEX 01 00:17:59
  TRACK 16 AUDIO
    TITLE "0:"
    INDEX 01 00:19:48
  TRACK 17 AUDIO
    TITLE "9:cjc040_5587"
    INDEX 01 00:20:26
  TRACK 18 AUDIO
    TITLE "0:"
    INDEX 01 00:21:33
  TRACK 19 AUDIO
    TITLE "7:cjc040_5588"
    INDEX 01 00:23:22
  TRACK 20 AUDIO
    TITLE "0:"
    INDEX 01 00:24:39
  TRACK 21 AUDIO
    TITLE "8:cjc040_5589"
    INDEX 01 00:25:17
  TRACK 22 AUDIO
    TITLE "0:"
    INDEX 01 00:26:28
  TRACK 23 AUDIO
    TITLE "9:cjc040_5590"
    INDEX 01 00:27:04
  TRACK 24 AUDIO
    TITLE "0:"
    INDEX 01 00:28:19
  TRACK 25 AUDIO
    TITLE "7:cjc040_5591"
    INDEX 01 00:29:72
  TRACK 26 AUDIO
    TITLE "0:"
    INDEX 01 00:31:14
  TRACK 27 AUDIO
    TITLE "8:cjc040_5592"
    INDEX 01 00:31:73
  TRACK 28 AUDIO
    TITLE "0:"
    INDEX 01 00:34:12
  TRACK 29 AUDIO
    TITLE "9:cjc040_5593"
    INDEX 01 00:34:63
  TRACK 30 AUDIO
    TITLE "0:"
    INDEX 01 00:36:09
  TRACK 31 AUDIO
    TITLE "7:cjc040_5594"
    INDEX 01 00:37:65
  TRACK 32 AUDIO
    TITLE "0:"
    INDEX 01 00:39:00
  TRACK 33 AUDIO
    TITLE "8:cjc040_5595"
    INDEX 01 00:39:56
  TRACK 34 AUDIO
    TITLE "0:"
    INDEX 01 00:42:63
  TRACK 35 AUDIO
    TITLE "9:cjc040_5596"
    INDEX 01 00:43:44
  TRACK 36 AUDIO
    TITLE "0:"
    INDEX 01 00:44:56
  TRACK 37 AUDIO
    TITLE "7:cjc040_5597"
    INDEX 01 00:46:41
  TRACK 38 AUDIO
    TITLE "0:"
    INDEX 01 00:47:60
  TRACK 39 AUDIO
    TITLE "8:cjc040_5598"
    INDEX 01 00:48:36
  TRACK 40 AUDIO
    TITLE "0:"
    INDEX 01 00:49:47
  TRACK 41 AUDIO
    TITLE "9:cjc040_5599"
    INDEX 01 00:50:35
  TRACK 42 AUDIO
    TITLE "0:"
    INDEX 01 00:51:54
  TRACK 43 AUDIO
    TITLE "7:cjc040_5600"
    INDEX 01 00:53:37
  TRACK 44 AUDIO
    TITLE "0:"
    INDEX 01 00:54:42
  TRACK 45 AUDIO
    TITLE "8:cjc040_5601"
    INDEX 01 00:55:24
  TRACK 46 AUDIO
    TITLE "0:"
    INDEX 01 00:57:15
  TRACK 47 AUDIO
    TITLE "9:cjc040_5602"
    INDEX 01 00:57:66
  TRACK 48 AUDIO
    TITLE "0:"
    INDEX 01 00:58:71
  TRACK 49 AUDIO
    TITLE "7:cjc040_5603"
    INDEX 01 01:00:57
  TRACK 50 AUDIO
    TITLE "0:"
    INDEX 01 01:02:14
  TRACK 51 AUDIO
    TITLE "8:cjc040_5604"
    INDEX 01 01:02:73
  TRACK 52 AUDIO
    TITLE "0:"
    INDEX 01 01:04:74
  TRACK 53 AUDIO
    TITLE "9:cjc040_5605"
    INDEX 01 01:05:54
  TRACK 54 AUDIO
    TITLE "0:"
    INDEX 01 01:07:06
  TRACK 55 AUDIO
    TITLE "7:cjc040_5606"
    INDEX 01 01:08:70
  TRACK 56 AUDIO
    TITLE "0:"
    INDEX 01 01:10:26
  TRACK 57 AUDIO
    TITLE "8:cjc040_5607"
    INDEX 01 01:11:09
  TRACK 58 AUDIO
    TITLE "0:"
    INDEX 01 01:12:15
  TRACK 59 AUDIO
    TITLE "9:cjc040_5608"
    INDEX 01 01:12:70
  TRACK 60 AUDIO
    TITLE "0:"
    INDEX 01 01:14:33
  TRACK 61 AUDIO
    TITLE "7:cjc040_5609"
    INDEX 01 01:16:16
  TRACK 62 AUDIO
    TITLE "0:"
    INDEX 01 01:17:35
  TRACK 63 AUDIO
    TITLE "8:cjc040_5610"
    INDEX 01 01:18:11
  TRACK 64 AUDIO
    TITLE "0:"
    INDEX 01 01:21:35
  TRACK 65 AUDIO
    TITLE "9:cjc040_5611"
    INDEX 01 01:22:11
  TRACK 66 AUDIO
    TITLE "0:"
    INDEX 01 01:23:30
  TRACK 67 AUDIO
    TITLE "7:cjc040_5612"
    INDEX 01 01:25:11
  TRACK 68 AUDIO
    TITLE "0:"
    INDEX 01 01:26:09
  TRACK 69 AUDIO
    TITLE "8:cjc040_5613"
    INDEX 01 01:26:68
  TRACK 70 AUDIO
    TITLE "0:"
    INDEX 01 01:30:48
  TRACK 71 AUDIO
    TITLE "9:cjc040_5614"
    INDEX 01 01:31:22
  TRACK 72 AUDIO
    TITLE "0:"
    INDEX 01 01:32:23
  TRACK 73 AUDIO
    TITLE "7:cjc040_5615"
    INDEX 01 01:34:06
  TRACK 74 AUDIO
    TITLE "0:"
    INDEX 01 01:35:33
  TRACK 75 AUDIO
    TITLE "8:cjc040_5616"
    INDEX 01 01:36:11
  TRACK 76 AUDIO
    TITLE "0:"
    INDEX 01 01:38:57
  TRACK 77 AUDIO
    TITLE "9:cjc040_5617"
    INDEX 01 01:39:39
  TRACK 78 AUDIO
    TITLE "0:"
    INDEX 01 01:40:62
  TRACK 79 AUDIO
    TITLE "7:cjc040_5618"
    INDEX 01 01:42:39
  TRACK 80 AUDIO
    TITLE "0:"
    INDEX 01 01:43:45
  TRACK 81 AUDIO
    TITLE "8:cjc040_5619"
    INDEX 01 01:44:21
  TRACK 82 AUDIO
    TITLE "0:"
    INDEX 01 01:46:41
  TRACK 83 AUDIO
    TITLE "9:cjc040_5620"
    INDEX 01 01:47:19
  TRACK 84 AUDIO
    TITLE "0:"
    INDEX 01 01:48:26
  TRACK 85 AUDIO
    TITLE "7:cjc040_5621"
    INDEX 01 01:50:07
  TRACK 86 AUDIO
    TITLE "0:"
    INDEX 01 01:51:05
  TRACK 87 AUDIO
    TITLE "8:cjc040_5622"
    INDEX 01 01:51:68
  TRACK 88 AUDIO
    TITLE "0:"
    INDEX 01 01:54:09
  TRACK 89 AUDIO
    TITLE "9:cjc040_5623"
    INDEX 01 01:54:68
  TRACK 90 AUDIO
    TITLE "0:"
    INDEX 01 01:55:67
  TRACK 91 AUDIO
    TITLE "7:cjc040_5624"
    INDEX 01 01:57:53
  TRACK 92 AUDIO
    TITLE "0:"
    INDEX 01 01:58:72
  TRACK 93 AUDIO
    TITLE "8:cjc040_5625"
    INDEX 01 01:59:46
  TRACK 94 AUDIO
    TITLE "0:"
    INDEX 01 02:00:57
  TRACK 95 AUDIO
    TITLE "9:cjc040_5626"
    INDEX 01 02:01:31
  TRACK 96 AUDIO
    TITLE "0:"
    INDEX 01 02:02:54
  TRACK 97 AUDIO
    TITLE "7:cjc040_5627"
    INDEX 01 02:04:37
  TRACK 98 AUDIO
    TITLE "0:"
    INDEX 01 02:05:54
  TRACK 99 AUDIO
    TITLE "8:cjc040_5628"
    INDEX 01 02:06:34
  TRACK 100 AUDIO
    TITLE "0:"
    INDEX 01 02:08:50
  TRACK 101 AUDIO
    TITLE "9:cjc040_5629"
    INDEX 01 02:09:30
  TRACK 102 AUDIO
    TITLE "0:"
    INDEX 01 02:10:47
  TRACK 103 AUDIO
    TITLE "7:cjc040_5630"
    INDEX 01 02:12:29
  TRACK 104 AUDIO
    TITLE "0:"
    INDEX 01 02:13:59
  TRACK 105 AUDIO
    TITLE "8:cjc040_5631"
    INDEX 01 02:14:39
  TRACK 106 AUDIO
    TITLE "0:"
    INDEX 01 02:15:45
  TRACK 107 AUDIO
    TITLE "9:cjc040_5632"
    INDEX 01 02:16:23
  TRACK 108 AUDIO
    TITLE "0:"
    INDEX 01 02:17:55
